<svg xmlns="http://www.w3.org/2000/svg" xmlns:xlink="http://www.w3.org/1999/xlink" viewBox="0 0 498.14 277.16"><defs><style>.cls-1{opacity:0.95;}.cls-2{fill:url(#linear-gradient);}.cls-3{fill:url(#linear-gradient-2);}.cls-4{fill:#fff;}</style><linearGradient id="linear-gradient" x1="39.57" y1="-23.18" x2="132.36" y2="-183.88" gradientTransform="translate(171.35 -5.67) rotate(180)" gradientUnits="userSpaceOnUse"><stop offset="0" stop-color="#8751ff"/><stop offset="1" stop-color="#431dff"/></linearGradient><linearGradient id="linear-gradient-2" x1="125.57" y1="107.76" x2="125.57" y2="277.16" gradientUnits="userSpaceOnUse"><stop offset="0" stop-color="#8751ff"/><stop offset="1" stop-color="#4d55ff"/></linearGradient></defs><title>logoMaya_3</title><g id="Layer_2" data-name="Layer 2"><g id="Layer_1-2" data-name="Layer 1"><g id="cimaNovo" class="cls-1"><path class="cls-2" d="M0,137a32.23,32.23,0,0,1,4.35-16.17L64.72,16.21a32.42,32.42,0,0,1,60.47,15.1,33.23,33.23,0,0,1,.38,5V128a33.34,33.34,0,0,1-.31,4.5,33.34,33.34,0,0,1,.31,4.5A32.42,32.42,0,0,1,93.15,169.4H32.78A32.42,32.42,0,0,1,0,137Z"/></g><g id="baixo" class="cls-1"><path class="cls-3" d="M188.36,140.21A32.33,32.33,0,0,1,184,156.38L123.64,261a32.42,32.42,0,0,1-60.47-15.1,33.23,33.23,0,0,1-.38-5V149.17a31.79,31.79,0,0,1,.31-4.5,31.79,31.79,0,0,1-.31-4.5A32.42,32.42,0,0,1,95.2,107.76h60.37a32.43,32.43,0,0,1,32.79,32.44Z"/></g><path class="cls-4" d="M234.44,249.42a5.12,5.12,0,0,1-5.2-5.2v-67.7a5,5,0,0,1,1.5-3.75,5.16,5.16,0,0,1,3.7-1.45,5,5,0,0,1,4.6,2.8l31.3,62.7h-3.2l30.5-62.7a5.05,5.05,0,0,1,4.6-2.8,5.14,5.14,0,0,1,3.7,1.45,5,5,0,0,1,1.5,3.75v67.7a4.92,4.92,0,0,1-1.55,3.7,5.18,5.18,0,0,1-8.85-3.7v-53.3l2-.5-26.2,53.4a5.14,5.14,0,0,1-4.5,2.6,5,5,0,0,1-4.8-3.1l-25.9-51.9,2-.5v53.3a5.12,5.12,0,0,1-5.2,5.2Z"/><path class="cls-4" d="M349.24,249.82a24,24,0,0,1-13.1-3.65,26,26,0,0,1-9.15-9.9,29.49,29.49,0,0,1-3.35-14.15,27.85,27.85,0,0,1,3.65-14.2,27.6,27.6,0,0,1,47.8,0,27.76,27.76,0,0,1,3.65,14.2h-3.9a29.37,29.37,0,0,1-3.35,14.15,25.84,25.84,0,0,1-9.15,9.9A24,24,0,0,1,349.24,249.82Zm2-9a17,17,0,0,0,9.1-2.45,17.3,17.3,0,0,0,6.3-6.7,19.64,19.64,0,0,0,2.3-9.55,19.89,19.89,0,0,0-2.3-9.65,17.44,17.44,0,0,0-6.3-6.7,18,18,0,0,0-18.15,0,17.77,17.77,0,0,0-6.4,6.7,19.7,19.7,0,0,0-2.35,9.65,19.45,19.45,0,0,0,2.35,9.55,17.62,17.62,0,0,0,6.4,6.7A17.09,17.09,0,0,0,351.24,240.82Zm22.4,8.7a5,5,0,0,1-5.1-5.1v-15.3l1.9-10.6,8.3,3.6v22.3a5,5,0,0,1-5.1,5.1Z"/><path class="cls-4" d="M415.54,247.22a4.5,4.5,0,0,1-3.55.15,5.15,5.15,0,0,1-2.65-2.55l-22.9-43.5a4.09,4.09,0,0,1-.25-3.65,4.81,4.81,0,0,1,2.65-2.55,4.71,4.71,0,0,1,3.6-.15,4.76,4.76,0,0,1,2.6,2.55l21.9,43.5a5.91,5.91,0,0,1,.75,3.65A3.17,3.17,0,0,1,415.54,247.22Zm-11.8,26.2a6.35,6.35,0,0,1-2.4-.6q-4.39-2-2.4-6.3l30.5-68.9c1.34-2.8,3.43-3.6,6.3-2.4s3.84,3.37,2.5,6.3l-30.6,68.8Q406.44,273.42,403.74,273.42Z"/><path class="cls-4" d="M468.64,249.82a24,24,0,0,1-13.1-3.65,25.84,25.84,0,0,1-9.15-9.9A29.49,29.49,0,0,1,443,222.12a27.85,27.85,0,0,1,3.65-14.2,27,27,0,0,1,9.9-9.95,27.38,27.38,0,0,1,14.05-3.65,26.91,26.91,0,0,1,23.85,13.6,27.85,27.85,0,0,1,3.65,14.2h-3.9a29.49,29.49,0,0,1-3.35,14.15,25.84,25.84,0,0,1-9.15,9.9A24,24,0,0,1,468.64,249.82Zm2-9a17,17,0,0,0,9.1-2.45,17.3,17.3,0,0,0,6.3-6.7,19.75,19.75,0,0,0,2.3-9.55,20,20,0,0,0-2.3-9.65,17.44,17.44,0,0,0-6.3-6.7,18,18,0,0,0-18.15,0,17.77,17.77,0,0,0-6.4,6.7,19.59,19.59,0,0,0-2.35,9.65,19.34,19.34,0,0,0,2.35,9.55,17.62,17.62,0,0,0,6.4,6.7A17.09,17.09,0,0,0,470.64,240.82Zm22.4,8.7a5,5,0,0,1-5.1-5.1v-15.3l1.9-10.6,8.3,3.6v22.3a5,5,0,0,1-5.1,5.1Z"/></g></g></svg>