<svg xmlns="http://www.w3.org/2000/svg" xmlns:xlink="http://www.w3.org/1999/xlink" viewBox="0 0 181.75 112.45"><defs><style>.cls-1{opacity:0.95;}.cls-2{fill:url(#linear-gradient);}.cls-3{fill:url(#linear-gradient-2);}.cls-4{fill:#fff;}.cls-5{opacity:0;}</style><linearGradient id="linear-gradient" x1="-36.92" y1="386.8" x2="-18.39" y2="354.71" gradientTransform="translate(14.86 421.7) rotate(180)" gradientUnits="userSpaceOnUse"><stop offset="0" stop-color="#8751ff"/><stop offset="1" stop-color="#431dff"/></linearGradient><linearGradient id="linear-gradient-2" x1="50.53" y1="52.93" x2="50.53" y2="86.75" gradientUnits="userSpaceOnUse"><stop offset="0" stop-color="#8751ff"/><stop offset="1" stop-color="#4d55ff"/></linearGradient></defs><title>logo_5</title><g id="Layer_2" data-name="Layer 2"><g id="Layer_1-2" data-name="Layer 1"><g id="cimaNovo" class="cls-1"><path class="cls-2" d="M25.46,58.76a6.43,6.43,0,0,1,.87-3.23L38.38,34.65a6.48,6.48,0,0,1,12.08,3,6.63,6.63,0,0,1,.07,1V57a6.8,6.8,0,0,1-.06.9,6.54,6.54,0,0,1,.06.89,6.47,6.47,0,0,1-6.47,6.48H32a6.45,6.45,0,0,1-6.54-6.47Z" transform="translate(-1 -1.1)"/></g><g id="baixo" class="cls-1"><path class="cls-3" d="M63.07,59.41a6.45,6.45,0,0,1-.87,3.23L50.15,83.52a6.47,6.47,0,0,1-12.08-3,6.63,6.63,0,0,1-.07-1V61.2a6.58,6.58,0,0,1,.06-.9,6.8,6.8,0,0,1-.06-.9,6.45,6.45,0,0,1,6.47-6.47H56.52a6.49,6.49,0,0,1,6.55,6.48Z" transform="translate(-1 -1.1)"/></g><path class="cls-4" d="M102.81,77a1.5,1.5,0,0,1-1.12-.46,1.52,1.52,0,0,1-.46-1.12V54.92a1.58,1.58,0,0,1,3-.73l9.48,19h-1l9.25-19a1.59,1.59,0,0,1,2.51-.41,1.51,1.51,0,0,1,.46,1.14V75.44a1.49,1.49,0,0,1-.47,1.12,1.57,1.57,0,0,1-2.68-1.12V59.29l.6-.16-7.94,16.19a1.55,1.55,0,0,1-1.36.79,1.52,1.52,0,0,1-1.46-.94l-7.85-15.73.61-.15V75.44A1.57,1.57,0,0,1,102.81,77Z" transform="translate(-1 -1.1)"/><path class="cls-4" d="M137.61,77.14a7.26,7.26,0,0,1-4-1.11,7.71,7.71,0,0,1-2.77-3,8.89,8.89,0,0,1-1-4.29,8.4,8.4,0,0,1,1.11-4.3,8.12,8.12,0,0,1,3-3,8.36,8.36,0,0,1,11.49,3,8.49,8.49,0,0,1,1.1,4.3h-1.18a9,9,0,0,1-1,4.29,7.81,7.81,0,0,1-2.78,3A7.26,7.26,0,0,1,137.61,77.14Zm.61-2.73a5.23,5.23,0,0,0,2.76-.74,5.41,5.41,0,0,0,1.91-2,6.48,6.48,0,0,0,0-5.82,5.34,5.34,0,0,0-1.91-2,5.44,5.44,0,0,0-5.51,0,5.33,5.33,0,0,0-1.94,2,6.32,6.32,0,0,0,0,5.82,5.41,5.41,0,0,0,1.94,2A5.27,5.27,0,0,0,138.22,74.41ZM145,77.05a1.5,1.5,0,0,1-1.55-1.55V70.87l.58-3.22,2.51,1.09V75.5a1.47,1.47,0,0,1-.44,1.11A1.5,1.5,0,0,1,145,77.05Z" transform="translate(-1 -1.1)"/><path class="cls-4" d="M157.71,76.35a1.41,1.41,0,0,1-1.08.05,1.55,1.55,0,0,1-.8-.78l-6.94-13.18a1.22,1.22,0,0,1-.08-1.11,1.44,1.44,0,0,1,.8-.77,1.46,1.46,0,0,1,1.1-.05,1.42,1.42,0,0,1,.78.78l6.64,13.18a1.85,1.85,0,0,1,.23,1.11A1,1,0,0,1,157.71,76.35Zm-3.58,7.94a2,2,0,0,1-.73-.18,1.26,1.26,0,0,1-.72-1.91l9.24-20.88a1.32,1.32,0,0,1,1.91-.73,1.27,1.27,0,0,1,.76,1.91l-9.28,20.85A1.23,1.23,0,0,1,154.13,84.29Z" transform="translate(-1 -1.1)"/><path class="cls-4" d="M173.8,77.14a7.29,7.29,0,0,1-4-1.11,7.79,7.79,0,0,1-2.77-3,8.89,8.89,0,0,1-1-4.29,8.4,8.4,0,0,1,1.11-4.3,8.37,8.37,0,0,1,14.49,0,8.4,8.4,0,0,1,1.11,4.3h-1.19a8.88,8.88,0,0,1-1,4.29,7.79,7.79,0,0,1-2.77,3A7.32,7.32,0,0,1,173.8,77.14Zm.61-2.73a5.23,5.23,0,0,0,2.76-.74,5.33,5.33,0,0,0,1.91-2,6.4,6.4,0,0,0,0-5.82,5.26,5.26,0,0,0-1.91-2,5.42,5.42,0,0,0-5.5,0,5.26,5.26,0,0,0-1.94,2,6.24,6.24,0,0,0,0,5.82,5.33,5.33,0,0,0,1.94,2A5.23,5.23,0,0,0,174.41,74.41Zm6.79,2.64a1.54,1.54,0,0,1-1.11-.44,1.51,1.51,0,0,1-.44-1.11V70.87l.58-3.22,2.52,1.09V75.5a1.51,1.51,0,0,1-.44,1.11A1.54,1.54,0,0,1,181.2,77.05Z" transform="translate(-1 -1.1)"/><path class="cls-5" d="M1.51,8.91a.46.46,0,0,1-.36-.15A.51.51,0,0,1,1,8.39V1.62a.5.5,0,0,1,.15-.37.49.49,0,0,1,.36-.15A.51.51,0,0,1,2,1.62V7.87H5.65a.51.51,0,0,1,.52.52A.51.51,0,0,1,6,8.76a.5.5,0,0,1-.37.15Z" transform="translate(-1 -1.1)"/><path class="cls-5" d="M1.51,113.55a.46.46,0,0,1-.36-.15A.51.51,0,0,1,1,113v-6.77a.5.5,0,0,1,.15-.37.49.49,0,0,1,.36-.15.51.51,0,0,1,.52.52v6.25H5.65a.51.51,0,0,1,.52.52.51.51,0,0,1-.15.37.5.5,0,0,1-.37.15Z" transform="translate(-1 -1.1)"/></g></g></svg>