<svg xmlns="http://www.w3.org/2000/svg" xmlns:xlink="http://www.w3.org/1999/xlink" viewBox="0 0 425.17 290.93"><defs><style>.cls-1{opacity:0.95;}.cls-2{fill:url(#linear-gradient);}.cls-3{fill:url(#linear-gradient-2);}.cls-4{opacity:0;}.cls-5{fill:#f9f9f9;}</style><linearGradient id="linear-gradient" x1="-1314.76" y1="607.85" x2="-1269.09" y2="528.74" gradientTransform="translate(-1085.14 616.47) rotate(180)" gradientUnits="userSpaceOnUse"><stop offset="0" stop-color="#ffa06a"/><stop offset="1" stop-color="#431dff"/></linearGradient><linearGradient id="linear-gradient-2" x1="226.56" y1="53.05" x2="226.56" y2="136.44" gradientUnits="userSpaceOnUse"><stop offset="0" stop-color="#ffa06a"/><stop offset="1" stop-color="#4d55ff"/></linearGradient></defs><title>premium</title><g id="Layer_2" data-name="Layer 2"><g id="Layer_1-2" data-name="Layer 1"><g id="cimaNovo" class="cls-1"><path class="cls-2" d="M164.75,67.42a15.86,15.86,0,0,1,2.14-8L196.61,8a16,16,0,0,1,29.77,7.43,16.8,16.8,0,0,1,.18,2.47V63a16.08,16.08,0,0,1-.15,2.21,16.12,16.12,0,0,1,.15,2.22,15.94,15.94,0,0,1-16,16H180.89a15.77,15.77,0,0,1-8.16-2.13A16,16,0,0,1,164.75,67.42Z" transform="translate(-1)"/></g><g id="baixo" class="cls-1"><path class="cls-3" d="M257.47,69a15.89,15.89,0,0,1-2.14,8l-29.72,51.48A16,16,0,0,1,195.84,121a16.7,16.7,0,0,1-.18-2.47V73.43a16.08,16.08,0,0,1,.15-2.21,16.34,16.34,0,0,1-.15-2.22,15.94,15.94,0,0,1,16-16h29.71a16,16,0,0,1,16.14,16Z" transform="translate(-1)"/></g><path class="cls-4" d="M421.51,106.29a.5.5,0,0,1-.37-.15.55.55,0,0,1-.14-.37V99a.5.5,0,0,1,.15-.37.49.49,0,0,1,.36-.15A.51.51,0,0,1,422,99v6.25h3.62a.51.51,0,0,1,.52.52.51.51,0,0,1-.15.37.5.5,0,0,1-.37.15Z" transform="translate(-1)"/><path class="cls-4" d="M1.51,290.93a.5.5,0,0,1-.37-.15.55.55,0,0,1-.14-.37v-6.77a.5.5,0,0,1,.15-.37.49.49,0,0,1,.36-.15.51.51,0,0,1,.52.52v6.25H5.65a.51.51,0,0,1,.52.52.51.51,0,0,1-.15.37.5.5,0,0,1-.37.15Z" transform="translate(-1)"/><path class="cls-5" d="M89.69,211.45A3.38,3.38,0,0,1,86.26,208v-44.6a3.28,3.28,0,0,1,1-2.47,3.4,3.4,0,0,1,2.44-1h13.17a17.38,17.38,0,0,1,8.76,2.17,15.36,15.36,0,0,1,6,6,17.9,17.9,0,0,1,2.14,8.86,17,17,0,0,1-2.14,8.56,15.07,15.07,0,0,1-6,5.86,17.77,17.77,0,0,1-8.76,2.11H93.11V208a3.39,3.39,0,0,1-1,2.43A3.28,3.28,0,0,1,89.69,211.45Zm3.42-24.17h9.75A10.57,10.57,0,0,0,108.2,186a9.68,9.68,0,0,0,3.62-3.62,10.44,10.44,0,0,0,1.32-5.27,11.41,11.41,0,0,0-1.32-5.57,10,10,0,0,0-3.62-3.79,10.21,10.21,0,0,0-5.34-1.38H93.11Z" transform="translate(-1)"/><path class="cls-5" d="M129.93,211.45a3.36,3.36,0,0,1-2.43-.82,3.24,3.24,0,0,1-.86-2.47V178.71a3.25,3.25,0,0,1,.86-2.43,3.29,3.29,0,0,1,2.43-.86,2.92,2.92,0,0,1,3.3,3.29v29.45a3.36,3.36,0,0,1-.83,2.43A3.24,3.24,0,0,1,129.93,211.45Zm-.06-22.53a13.12,13.12,0,0,1,1.94-7.08,14.22,14.22,0,0,1,5.24-5,14.54,14.54,0,0,1,7.24-1.84c2.64,0,4.6.42,5.9,1.28s1.79,1.88,1.48,3.06a2.45,2.45,0,0,1-2,2,3.88,3.88,0,0,1-1.58-.06,18.38,18.38,0,0,0-7.58-.13,10.19,10.19,0,0,0-5.3,2.7,6.8,6.8,0,0,0-1.94,5Z" transform="translate(-1)"/><path class="cls-5" d="M172.94,211.71a19.78,19.78,0,0,1-9.71-2.33,17.07,17.07,0,0,1-6.65-6.46,18.3,18.3,0,0,1-2.41-9.45,19.45,19.45,0,0,1,2.27-9.52,16.67,16.67,0,0,1,6.29-6.45,18,18,0,0,1,9.23-2.34,16.45,16.45,0,0,1,8.82,2.27,14.72,14.72,0,0,1,5.63,6.26,20.64,20.64,0,0,1,2,9.19,2.76,2.76,0,0,1-.86,2.07,3,3,0,0,1-2.17.82H158.78V190.5h26.35l-2.7,1.85a14.13,14.13,0,0,0-1.32-5.9,9.63,9.63,0,0,0-9.15-5.63,12,12,0,0,0-6.43,1.65,10.72,10.72,0,0,0-4.05,4.51,14.76,14.76,0,0,0-1.38,6.49,12.56,12.56,0,0,0,1.65,6.45,11.91,11.91,0,0,0,4.54,4.48,13.2,13.2,0,0,0,6.65,1.65,12.44,12.44,0,0,0,4.19-.76,12.73,12.73,0,0,0,3.45-1.74,3.7,3.7,0,0,1,2.15-.76,2.89,2.89,0,0,1,2,.69,3.1,3.1,0,0,1,1.19,2.17,2.37,2.37,0,0,1-1,2,18.26,18.26,0,0,1-5.57,2.89A19.85,19.85,0,0,1,172.94,211.71Z" transform="translate(-1)"/><path class="cls-5" d="M200.28,211.52a3.27,3.27,0,0,1-3.36-3.36V178.85a3.25,3.25,0,0,1,1-2.44,3.35,3.35,0,0,1,5.77,2.44v29.31a3.33,3.33,0,0,1-.92,2.4A3.24,3.24,0,0,1,200.28,211.52Zm22,0a3.27,3.27,0,0,1-3.36-3.36V189.32q0-4.15-2-6.16a7.28,7.28,0,0,0-5.34-2,7.45,7.45,0,0,0-5.66,2.37,8.44,8.44,0,0,0-2.24,6.06h-4.15A16,16,0,0,1,201.2,182a12.82,12.82,0,0,1,4.74-5.1,13,13,0,0,1,6.92-1.85,13.2,13.2,0,0,1,6.65,1.65,11.2,11.2,0,0,1,4.51,4.84,17,17,0,0,1,1.62,7.74v18.84a3.33,3.33,0,0,1-.92,2.4A3.24,3.24,0,0,1,222.28,211.52Zm21.93,0a3.28,3.28,0,0,1-3.36-3.36V189.32q0-4.15-2-6.16a7.27,7.27,0,0,0-5.33-2,7.38,7.38,0,0,0-5.64,2.37,8.54,8.54,0,0,0-2.2,6.06h-5.47A15,15,0,0,1,222,182a13.07,13.07,0,0,1,5.17-5.1,15.38,15.38,0,0,1,7.6-1.85,13.24,13.24,0,0,1,6.66,1.65,11.26,11.26,0,0,1,4.51,4.84,17.09,17.09,0,0,1,1.61,7.74v18.84a3.33,3.33,0,0,1-.92,2.4A3.24,3.24,0,0,1,244.21,211.52Z" transform="translate(-1)"/><path class="cls-5" d="M262.72,169.56a4.41,4.41,0,1,1,3.06-1.29A4.17,4.17,0,0,1,262.72,169.56Zm0,41.89a3.27,3.27,0,0,1-3.36-3.36V178.78a3.24,3.24,0,0,1,1-2.44,3.34,3.34,0,0,1,5.76,2.44v29.31a3.35,3.35,0,0,1-.92,2.41A3.27,3.27,0,0,1,262.72,211.45Z" transform="translate(-1)"/><path class="cls-5" d="M293.74,211.78a16.84,16.84,0,0,1-8.13-1.94,14.08,14.08,0,0,1-5.67-5.7,18.87,18.87,0,0,1-2.07-9.22V178.71a3.25,3.25,0,0,1,3.36-3.35,3.26,3.26,0,0,1,3.36,3.35v16.21A12.09,12.09,0,0,0,286,201a8.66,8.66,0,0,0,3.76,3.56,12,12,0,0,0,5.33,1.15,10.93,10.93,0,0,0,5-1.12,9.3,9.3,0,0,0,3.52-3,7.35,7.35,0,0,0,1.32-4.28h4.15a13.91,13.91,0,0,1-2,7.38,14.52,14.52,0,0,1-5.46,5.2A16.07,16.07,0,0,1,293.74,211.78Zm14.56-.33a3.27,3.27,0,0,1-3.36-3.36V178.71a3.2,3.2,0,0,1,1-2.43,3.34,3.34,0,0,1,5.76,2.43v29.38a3.35,3.35,0,0,1-.92,2.41A3.27,3.27,0,0,1,308.3,211.45Z" transform="translate(-1)"/><path class="cls-5" d="M326.88,211.52a3.27,3.27,0,0,1-3.36-3.36V178.85a3.22,3.22,0,0,1,1-2.44,3.31,3.31,0,0,1,2.41-.92,3.16,3.16,0,0,1,3.35,3.36v29.31a3.29,3.29,0,0,1-.92,2.4A3.22,3.22,0,0,1,326.88,211.52Zm22,0a3.27,3.27,0,0,1-3.36-3.36V189.32c0-2.77-.69-4.82-2-6.16a7.27,7.27,0,0,0-5.33-2,7.49,7.49,0,0,0-5.67,2.37,8.48,8.48,0,0,0-2.24,6.06h-4.15A16,16,0,0,1,327.8,182a12.82,12.82,0,0,1,4.74-5.1,13,13,0,0,1,6.92-1.85,13.2,13.2,0,0,1,6.65,1.65,11.26,11.26,0,0,1,4.51,4.84,17,17,0,0,1,1.61,7.74v18.84a3.29,3.29,0,0,1-.92,2.4A3.22,3.22,0,0,1,348.88,211.52Zm21.93,0a3.28,3.28,0,0,1-3.36-3.36V189.32q0-4.15-2-6.16a7.28,7.28,0,0,0-5.34-2,7.36,7.36,0,0,0-5.63,2.37,8.55,8.55,0,0,0-2.21,6.06h-5.46a15,15,0,0,1,1.84-7.54,13.14,13.14,0,0,1,5.17-5.1,15.45,15.45,0,0,1,7.61-1.85,13.2,13.2,0,0,1,6.65,1.65,11.2,11.2,0,0,1,4.51,4.84,17,17,0,0,1,1.62,7.74v18.84a3.33,3.33,0,0,1-.92,2.4A3.24,3.24,0,0,1,370.81,211.52Z" transform="translate(-1)"/></g></g></svg>