<svg xmlns="http://www.w3.org/2000/svg" xmlns:xlink="http://www.w3.org/1999/xlink" viewBox="0 0 425.17 290.93"><defs><style>.cls-1{opacity:0.95;}.cls-2{fill:url(#linear-gradient);}.cls-3{fill:url(#linear-gradient-2);}.cls-4{opacity:0;}.cls-5{fill:#f9f9f9;}</style><linearGradient id="linear-gradient" x1="-1314.76" y1="607.85" x2="-1269.09" y2="528.74" gradientTransform="translate(-1085.14 616.47) rotate(180)" gradientUnits="userSpaceOnUse"><stop offset="0" stop-color="#29c7e3"/><stop offset="1" stop-color="#431dff"/></linearGradient><linearGradient id="linear-gradient-2" x1="226.56" y1="53.05" x2="226.56" y2="136.44" gradientUnits="userSpaceOnUse"><stop offset="0" stop-color="#29c7e3"/><stop offset="1" stop-color="#4d55ff"/></linearGradient></defs><title>solution_3</title><g id="Layer_2" data-name="Layer 2"><g id="Layer_1-2" data-name="Layer 1"><g id="cimaNovo" class="cls-1"><path class="cls-2" d="M164.75,67.42a15.86,15.86,0,0,1,2.14-8L196.61,8a16,16,0,0,1,29.77,7.43,16.8,16.8,0,0,1,.18,2.47V63a16.08,16.08,0,0,1-.15,2.21,16.12,16.12,0,0,1,.15,2.22,15.94,15.94,0,0,1-16,16H180.89a15.77,15.77,0,0,1-8.16-2.13A16,16,0,0,1,164.75,67.42Z" transform="translate(-1)"/></g><g id="baixo" class="cls-1"><path class="cls-3" d="M257.47,69a15.89,15.89,0,0,1-2.14,8l-29.72,51.48A16,16,0,0,1,195.84,121a16.7,16.7,0,0,1-.18-2.47V73.43a16.08,16.08,0,0,1,.15-2.21,16.34,16.34,0,0,1-.15-2.22,15.94,15.94,0,0,1,16-16h29.71a16,16,0,0,1,16.14,16Z" transform="translate(-1)"/></g><path class="cls-4" d="M421.51,106.29a.5.5,0,0,1-.37-.15.55.55,0,0,1-.14-.37V99a.5.5,0,0,1,.15-.37.49.49,0,0,1,.36-.15A.51.51,0,0,1,422,99v6.25h3.62a.51.51,0,0,1,.52.52.51.51,0,0,1-.15.37.5.5,0,0,1-.37.15Z" transform="translate(-1)"/><path class="cls-4" d="M1.51,290.93a.5.5,0,0,1-.37-.15.55.55,0,0,1-.14-.37v-6.77a.5.5,0,0,1,.15-.37.49.49,0,0,1,.36-.15.51.51,0,0,1,.52.52v6.25H5.65a.51.51,0,0,1,.52.52.51.51,0,0,1-.15.37.5.5,0,0,1-.37.15Z" transform="translate(-1)"/><path class="cls-5" d="M102.6,212.11a24.47,24.47,0,0,1-8-1.32,20.84,20.84,0,0,1-6.65-3.69,14.52,14.52,0,0,1-4.15-5.46,2.61,2.61,0,0,1,0-2.57,3.28,3.28,0,0,1,2.34-1.52,3.35,3.35,0,0,1,2.34.36,4,4,0,0,1,1.74,1.88,8.52,8.52,0,0,0,2.61,3,14.78,14.78,0,0,0,4.38,2.24,17,17,0,0,0,5.4.86,16.63,16.63,0,0,0,5.83-1,10.35,10.35,0,0,0,4.31-2.87,6.76,6.76,0,0,0,1.65-4.64,8.7,8.7,0,0,0-2.73-6.26q-2.75-2.76-9-3.42-8.16-.8-12.84-4.81a12.6,12.6,0,0,1-4.68-10,11.42,11.42,0,0,1,2.44-7.37A15.07,15.07,0,0,1,94.2,161a26,26,0,0,1,9.32-1.59,20.19,20.19,0,0,1,7,1.12,16.67,16.67,0,0,1,5.23,3.1,20.46,20.46,0,0,1,3.89,4.68,4.17,4.17,0,0,1,.76,2.73,2.7,2.7,0,0,1-1.29,2,3.06,3.06,0,0,1-2.7.33,3.71,3.71,0,0,1-2.17-1.71,11.82,11.82,0,0,0-2.57-3.23,11.51,11.51,0,0,0-3.56-2.08,13.92,13.92,0,0,0-4.81-.75,15.75,15.75,0,0,0-8.16,1.81,6.19,6.19,0,0,0-3.3,5.76,7.62,7.62,0,0,0,1,3.79,8.17,8.17,0,0,0,3.76,3.13,24.4,24.4,0,0,0,7.87,1.84q7.83.8,12.22,4.78a13.51,13.51,0,0,1,4.38,10.5,13.13,13.13,0,0,1-1.55,6.52,14.22,14.22,0,0,1-4.15,4.65,18.64,18.64,0,0,1-5.93,2.8A25.83,25.83,0,0,1,102.6,212.11Z" transform="translate(-1)"/><path class="cls-5" d="M147.26,211.71a18.59,18.59,0,0,1-9.42-2.33,16.91,16.91,0,0,1-6.43-6.46,20.47,20.47,0,0,1,0-19,16.88,16.88,0,0,1,6.43-6.45,20,20,0,0,1,18.77,0A16.93,16.93,0,0,1,163,184a20.51,20.51,0,0,1,0,19,16.6,16.6,0,0,1-6.39,6.46A18.58,18.58,0,0,1,147.26,211.71Zm0-5.92a11.6,11.6,0,0,0,6.06-1.58,11.18,11.18,0,0,0,4.11-4.35,14.6,14.6,0,0,0,0-12.81,11,11,0,0,0-4.11-4.38,12.41,12.41,0,0,0-12.12,0,11.16,11.16,0,0,0-4.15,4.38,14.25,14.25,0,0,0,0,12.81,11.35,11.35,0,0,0,4.15,4.35A11.55,11.55,0,0,0,147.26,205.79Z" transform="translate(-1)"/><path class="cls-5" d="M183.94,211.45a8.69,8.69,0,0,1-5.13-1.58,10.38,10.38,0,0,1-3.49-4.31,14.9,14.9,0,0,1-1.26-6.29v-36a3.3,3.3,0,1,1,6.59,0v36a7.91,7.91,0,0,0,.92,4,2.71,2.71,0,0,0,2.37,1.58h1.65a2.72,2.72,0,0,1,2.14.93,3.4,3.4,0,0,1,.82,2.37,2.82,2.82,0,0,1-1.25,2.37,5.32,5.32,0,0,1-3.22.92Z" transform="translate(-1)"/><path class="cls-5" d="M210.29,211.78a16.84,16.84,0,0,1-8.13-1.94,14.08,14.08,0,0,1-5.67-5.7,18.87,18.87,0,0,1-2.07-9.22V178.71a3.36,3.36,0,1,1,6.71,0v16.21a12.09,12.09,0,0,0,1.39,6.09,8.63,8.63,0,0,0,3.75,3.56,12,12,0,0,0,5.34,1.15,10.93,10.93,0,0,0,5-1.12,9.37,9.37,0,0,0,3.52-3,7.35,7.35,0,0,0,1.32-4.28h4.15a13.91,13.91,0,0,1-2,7.38,14.47,14.47,0,0,1-5.47,5.2A16,16,0,0,1,210.29,211.78Zm14.56-.33a3.25,3.25,0,0,1-3.36-3.36V178.71a3.23,3.23,0,0,1,.95-2.43,3.35,3.35,0,0,1,5.77,2.43v29.38a3.35,3.35,0,0,1-.92,2.41A3.27,3.27,0,0,1,224.85,211.45Z" transform="translate(-1)"/><path class="cls-5" d="M238.55,182.4a3.14,3.14,0,0,1-2.24-.79,2.56,2.56,0,0,1-.86-2,2.74,2.74,0,0,1,.86-2.11,3.14,3.14,0,0,1,2.24-.79h15.21a3.16,3.16,0,0,1,2.24.79,2.74,2.74,0,0,1,.86,2.11,2.56,2.56,0,0,1-.86,2,3.16,3.16,0,0,1-2.24.79Zm14.62,29a10.8,10.8,0,0,1-5.93-1.68,11.71,11.71,0,0,1-4.15-4.58,13.84,13.84,0,0,1-1.51-6.52V167.25a3.29,3.29,0,1,1,6.58,0v31.42a6.81,6.81,0,0,0,1.45,4.42,4.44,4.44,0,0,0,3.56,1.77h2.24a2.59,2.59,0,0,1,2,.93,3.4,3.4,0,0,1,.82,2.37,3,3,0,0,1-1.09,2.37,4.17,4.17,0,0,1-2.79.92Z" transform="translate(-1)"/><path class="cls-5" d="M270.49,169.56a4.41,4.41,0,1,1,3.06-1.29A4.18,4.18,0,0,1,270.49,169.56Zm0,41.89a3.27,3.27,0,0,1-3.36-3.36V178.78a3.24,3.24,0,0,1,1-2.44,3.34,3.34,0,0,1,5.76,2.44v29.31a3.35,3.35,0,0,1-.92,2.41A3.27,3.27,0,0,1,270.49,211.45Z" transform="translate(-1)"/><path class="cls-5" d="M302.7,211.71a18.59,18.59,0,0,1-9.42-2.33,17,17,0,0,1-6.42-6.46,20.39,20.39,0,0,1,0-19,16.93,16.93,0,0,1,6.42-6.45,20,20,0,0,1,18.77,0,16.88,16.88,0,0,1,6.43,6.45,20.59,20.59,0,0,1,0,19,16.74,16.74,0,0,1-6.39,6.46A18.59,18.59,0,0,1,302.7,211.71Zm0-5.92a11.6,11.6,0,0,0,6.06-1.58,11.13,11.13,0,0,0,4.12-4.35,14.6,14.6,0,0,0,0-12.81,11,11,0,0,0-4.12-4.38,12.41,12.41,0,0,0-12.12,0,11.16,11.16,0,0,0-4.15,4.38,14.34,14.34,0,0,0,0,12.81,11.35,11.35,0,0,0,4.15,4.35A11.6,11.6,0,0,0,302.7,205.79Z" transform="translate(-1)"/><path class="cls-5" d="M334.19,211.52a3.27,3.27,0,0,1-3.36-3.36V178.78a3.23,3.23,0,0,1,.95-2.44,3.35,3.35,0,0,1,2.41-.92,3.16,3.16,0,0,1,3.35,3.36v29.38a3.29,3.29,0,0,1-.92,2.4A3.2,3.2,0,0,1,334.19,211.52Zm27.07,0a3.27,3.27,0,0,1-3.36-3.36V192a12.06,12.06,0,0,0-1.38-6.12,8.8,8.8,0,0,0-3.73-3.53,12.1,12.1,0,0,0-5.36-1.15,11.11,11.11,0,0,0-5,1.12,9.46,9.46,0,0,0-3.56,3,7.31,7.31,0,0,0-1.32,4.31H333.4a13.86,13.86,0,0,1,2-7.41,14.64,14.64,0,0,1,5.5-5.17,16.1,16.1,0,0,1,7.84-1.91,16.91,16.91,0,0,1,8.14,1.94,14.06,14.06,0,0,1,5.66,5.7,18.76,18.76,0,0,1,2.08,9.22v16.21a3.28,3.28,0,0,1-3.36,3.36Z" transform="translate(-1)"/></g></g></svg>